# xmcd
#
# Track frame offsets:
#	150
#	17157
#	37090
#	55150
#	70660
#	90905
#	106190
#	118557
#	135370
#	148025
#	164870
#	179370
#	192937
#	212242
#	228190
#
# Disc length: 3250 seconds
#
# Revision: 1
# Processed by: cddbd v1.5.1PL2 Copyright (c) Steve Scherf et al.
# Submitted via: audiograbber 1.83.01
#
DISCID=ce0cb00f
DTITLE=Music Maestro - MM6232
DYEAR=1900
DGENRE=Karaoke
TTITLE0=Twain, Shania - You're Still The One
TTITLE1=Sons Of The Desert - Leaving October
TTITLE2=Keith, Toby - Dream Walkin'
TTITLE3=Lonestar - Say When
TTITLE4=Loveless, Patty - To Have You Back Again
TTITLE5=Carson, Jeff - Cheatin' On Her Heart
TTITLE6=River Road - Somebody Will
TTITLE7=Collins, Jim - Next Step, The
TTITLE8=Cummings, Chris - Kind Of Heart That Breaks, The
TTITLE9=Mavericks, The - To Be With You
TTITLE10=Atkins, Rhett - Better Than It Used To Be
TTITLE11=Walker, Clay - Then What
TTITLE12=Mason, Mila - Closer To Heaven
TTITLE13=Hayes, Wade - Day She Left Tulsa In A Chevy, The
TTITLE14=Byrd, Tracy - I'm From The Country
EXTD=As Listed In KJ Pro
EXTT0=
EXTT1=
EXTT2=
EXTT3=
EXTT4=
EXTT5=
EXTT6=
EXTT7=
EXTT8=
EXTT9=
EXTT10=
EXTT11=
EXTT12=
EXTT13=
EXTT14=
PLAYORDER=
